<?xml version="1.0" encoding="UTF-8"?>
<svg xmlns="http://www.w3.org/2000/svg" xmlns:xlink="http://www.w3.org/1999/xlink" viewBox="0 0 730.19 926.13">
  <defs>
    <style>
      .cls-1, .cls-2 {
        fill: none;
      }

      .cls-1, .cls-2, .cls-3 {
        stroke: #000;
        stroke-miterlimit: 10;
      }

      .cls-1, .cls-3 {
        stroke-width: 4px;
      }

      .cls-4 {
        fill: #4f2502;
      }

      .cls-5 {
        letter-spacing: 0em;
      }

      .cls-2 {
        stroke-width: 10px;
      }

      .cls-6, .cls-3 {
        fill: #ffd400;
      }

      .cls-7 {
        font-size: 31px;
      }

      .cls-8 {
        fill: #b4ad9b;
      }

      .cls-9 {
        fill: #e2b703;
      }

      .cls-10 {
        font-family: MyriadPro-Regular, 'Myriad Pro';
      }

      .cls-11 {
        font-size: 49px;
      }

      .cls-12 {
        fill: #aaa393;
      }

      .cls-13 {
        letter-spacing: 0em;
      }

      .cls-14 {
        fill: #5b2b00;
      }

      .cls-15 {
        fill: #adaaaa;
      }

      .cls-16 {
        letter-spacing: .02em;
      }
    </style>
  </defs>
  <g id="Layer_2" data-name="Layer 2">
    <g>
      <g>
        <rect class="cls-6" x="435.78" y="-2.03" width="21.27" height="658.67" transform="translate(69.54 -78.13) rotate(10.84)"/>
        <path d="m396.17,654.6l-23.99-4.59L496.67,0l23.99,4.59-124.49,650Zm-20.3-7.1l17.8,3.41L516.97,7.1l-17.8-3.41-123.31,643.81Z"/>
      </g>
      <g>
        <rect class="cls-6" x="533.83" y="34.21" width="21.27" height="152.85" transform="translate(755.55 -403.31) rotate(100.84)"/>
        <path d="m618.78,137.3l-153.22-29.34,4.59-23.99,153.22,29.34-4.59,23.99Zm-149.53-31.85l147.02,28.16,3.41-17.8-147.02-28.16-3.41,17.8Z"/>
      </g>
      <g>
        <rect class="cls-6" x="513.68" y="139.45" width="21.27" height="152.85" transform="translate(834.96 -258.48) rotate(100.84)"/>
        <path d="m598.62,242.54l-153.22-29.34,4.59-23.99,153.22,29.34-4.59,23.99Zm-149.53-31.85l147.02,28.16,3.41-17.8-147.02-28.16-3.41,17.8Z"/>
      </g>
      <g>
        <rect class="cls-6" x="487.59" y="275.64" width="21.27" height="152.85" transform="translate(937.73 -71.05) rotate(100.84)"/>
        <path d="m572.54,378.73l-153.22-29.34,4.59-23.99,153.22,29.34-4.59,23.99Zm-149.53-31.85l147.02,28.16,3.41-17.8-147.02-28.16-3.41,17.8Z"/>
      </g>
      <g>
        <rect class="cls-6" x="465.07" y="393.26" width="21.27" height="152.85" transform="translate(1026.48 90.82) rotate(100.84)"/>
        <path d="m550.01,496.35l-153.22-29.34,4.59-23.99,153.22,29.34-4.59,23.99Zm-149.53-31.85l147.02,28.16,3.41-17.8-147.02-28.16-3.41,17.8Z"/>
      </g>
      <g>
        <rect class="cls-6" x="444.02" y="503.14" width="21.27" height="152.85" transform="translate(1109.4 242.04) rotate(100.84)"/>
        <path d="m528.97,606.23l-153.22-29.34,4.59-23.99,153.22,29.34-4.59,23.99Zm-149.53-31.85l147.02,28.16,3.41-17.8-147.02-28.16-3.41,17.8Z"/>
      </g>
      <g>
        <rect class="cls-6" x="546.44" y="19.16" width="21.27" height="658.67" transform="translate(75.5 -98.57) rotate(10.84)"/>
        <path d="m506.82,675.79l-23.99-4.59L607.32,21.19l23.99,4.59-124.49,650Zm-20.3-7.1l17.8,3.41L627.62,28.29l-17.8-3.41-123.31,643.81Z"/>
      </g>
    </g>
  </g>
  <g id="Layer_4" data-name="Layer 4">
    <path d="m169.08,644.1c14.75-82.49,28.44-165.17,41.12-248,.96-6.3-8.67-9.01-9.64-2.66-12.68,82.83-26.37,165.51-41.12,248-1.13,6.29,8.51,8.99,9.64,2.66h0Z"/>
    <circle class="cls-2" cx="192.89" cy="146.4" r="49.52"/>
    <path d="m201.89,410.39c6.43,0,6.45-10,0-10s-6.45,10,0,10h0Z"/>
    <path d="m204.06,400.09c22.99,77.5,36.57,157.58,40.33,238.33.3,6.41,10.3,6.44,10,0-3.8-81.62-17.46-162.66-40.69-240.99-1.83-6.16-11.48-3.53-9.64,2.66h0Z"/>
    <path d="m211.83,394.25c3.61-64.25,1.44-128.74-6.48-192.6-.78-6.3-10.79-6.38-10,0,7.92,63.87,10.09,128.35,6.48,192.6-.36,6.43,9.64,6.41,10,0h0Z"/>
    <path d="m208.37,263.17c13.95-1.24,28.32,2.77,41.57-3.35,11.86-5.48,17.04-17.86,13.21-30.29-4.11-13.33-15.66-21.11-25.12-30.46-10.17-10.05-17.65-22.41-22.08-35.99-1.99-6.09-11.65-3.48-9.64,2.66,3.68,11.3,9.16,21.8,16.48,31.18s17.2,16.12,24.89,25.14,10.6,22.45-1.51,28.52c-11.48,5.75-25.54,1.5-37.79,2.59-6.36.56-6.42,10.57,0,10h0Z"/>
    <path d="m199.03,250.32c-12.94,3.76-27.73,9.76-29.57,25.02-1.75,14.47,12,22.08,24.87,20.56,14.4-1.71,23.48-11.6,28.61-24.45,2.59-6.5,4.95-13.46,12-16.28,6.34-2.54,13.67-1.99,20.33-1.58s6.4-9.61,0-10c-10.29-.63-21.68-.73-30.24,5.89-9.32,7.2-9.43,19.34-16.39,28.04-3.49,4.36-8.62,7.33-14.11,8.31-4.85.87-12.24.37-14.59-4.79-2.11-4.62.77-10.2,4.25-13.27,4.85-4.28,11.44-6.02,17.51-7.79s3.54-11.45-2.66-9.64h0Z"/>
    <path class="cls-15" d="m332.28,616.03c14.93-77.97,29.87-155.93,44.8-233.9s29.87-155.93,44.8-233.9c8.4-43.88,16.81-87.76,25.21-131.64.36-1.89-2.53-2.69-2.89-.8-14.93,77.97-29.87,155.93-44.8,233.9-14.93,77.97-29.87,155.93-44.8,233.9-8.4,43.88-16.81,87.76-25.21,131.64-.36,1.89,2.53,2.69,2.89.8h0Z"/>
    <path class="cls-15" d="m310.42,616.65c13.16,2.52,26.32,5.04,39.47,7.56,1.89.36,2.69-2.53.8-2.89-13.16-2.52-26.32-5.04-39.47-7.56-1.89-.36-2.69,2.53-.8,2.89h0Z"/>
    <path class="cls-15" d="m427.06,11.95c13.16,2.52,26.32,5.04,39.47,7.56,1.89.36,2.69-2.53.8-2.89-13.16-2.52-26.32-5.04-39.47-7.56-1.89-.36-2.69,2.53-.8,2.89h0Z"/>
    <path class="cls-15" d="m539.07,597.96c16.1,2.31,29.32,15.53,33.04,31.17,1.04,4.38,1.27,8.91.67,13.37-.11.81.77,1.49,1.5,1.5.9,0,1.39-.7,1.5-1.5,2.27-17.04-7.58-34.44-22.35-42.76-4.2-2.36-8.8-3.99-13.57-4.67-.81-.12-1.6.2-1.85,1.05-.2.7.25,1.73,1.05,1.85h0Z"/>
    <path class="cls-15" d="m564.8,580.96c-.03-.33-.03-.65,0-.98,0-.04.04-.34.02-.17-.02.15.02-.09.02-.09.05-.19.09-.39.14-.58.04-.14.09-.28.14-.42.01-.03.12-.26.02-.06.03-.07.06-.14.1-.2.16-.31.34-.62.54-.9.02-.02.2-.27.11-.15-.08.11.07-.08.07-.08.1-.11.2-.23.3-.34.12-.13.25-.25.38-.37.06-.05.11-.1.17-.15.35-.31-.1.07.11-.09.26-.19.54-.37.82-.52.07-.04.13-.07.2-.1.03-.01.31-.14.16-.08-.13.06.09-.04.1-.04.09-.03.19-.07.28-.1.16-.05.33-.1.5-.14.07-.02.52-.1.26-.06.35-.04.69-.04,1.04-.02,0,0,.25.02.1,0-.16-.02.11.02.16.03.12.02.23.05.35.08.13.04.26.08.4.13.03,0,.22.08.04.01-.2-.08.13.06.14.07.23.11.44.25.65.38.29.19-.08-.09.11.08.1.09.2.18.3.27.18.18.35.37.52.56s-.11-.17.08.12c.09.13.18.26.26.4.13.22.25.45.36.68s-.07-.21.06.14c.05.13.09.26.14.4.08.27.15.54.21.81.02.12.04.24.06.35-.05-.34,0,.07,0,.19.02.26.02.51,0,.77,0,.14-.02.27-.03.41.02-.34-.01.05-.04.18-.05.25-.12.49-.2.73-.02.05-.15.37-.07.2.07-.16-.11.22-.15.29-.07.12-.13.24-.21.35-.07.11-.2.28-.04.08-.19.24-.4.45-.62.65-.04.04-.09.08-.14.12.01-.01.2-.15.07-.05-.11.08-.23.16-.35.23-.1.06-.2.12-.31.17s-.48.2-.18.09c-.26.09-.52.18-.78.24-.11.03-.23.05-.35.07-.03,0-.23.03-.03,0,.23-.03-.11,0-.15,0-.26.02-.52.02-.77,0-.14,0-.28-.02-.42-.03-.26-.02.21.05-.14-.02-.32-.06-.63-.13-.94-.23-.15-.05-.3-.11-.46-.16-.16-.06.06.03.08.04-.07-.03-.15-.07-.22-.1-.29-.14-.57-.29-.84-.47-.13-.09-.26-.18-.39-.27.24.17-.03-.03-.11-.1-.24-.21-.45-.44-.66-.67-.22-.26.04.09-.09-.12-.08-.13-.17-.26-.25-.4s-.15-.28-.22-.42c-.01-.03-.09-.21-.02-.04.08.2-.05-.15-.05-.15-.1-.3-.17-.62-.22-.93-.12-.8-1.13-1.24-1.85-1.05-.86.24-1.17,1.04-1.05,1.85.9,6.14,9.99,8.52,13.74,3.61,1.84-2.4,1.76-5.7.52-8.35-1.34-2.84-4.27-4.62-7.41-4.19-4.02.55-7.43,4.47-7.09,8.58.07.81.64,1.5,1.5,1.5.76,0,1.57-.69,1.5-1.5h0Z"/>
    <path class="cls-15" d="m584.27,564.73c7.04,1.13,14.07,2.25,21.11,3.38l-1.05-1.85c-1.54,8.07-5.57,15.41-11.59,21.01-1.42,1.32.71,3.44,2.12,2.12,6.35-5.92,10.73-13.8,12.36-22.33.14-.73-.2-1.71-1.05-1.85-7.04-1.13-14.07-2.25-21.11-3.38-1.89-.3-2.7,2.59-.8,2.89h0Z"/>
    <path class="cls-15" d="m615.51,588.11c-1.09-4.94-1.26-10.8,1.07-15.44.9-1.78,2.26-3.61,4.26-4.2,1.63-.48,3.35-.08,4.83.75,7.57,4.26,8.31,16.54.39,20.82-3.57,1.93-8.01,1.25-10.51-2.08-.49-.65-1.29-.97-2.05-.54-.64.37-1.02,1.41-.54,2.05,2.93,3.91,7.76,5.64,12.47,4.08,4.88-1.62,8.34-6.05,9.12-11.09.86-5.54-1.37-11.36-5.83-14.8-1.88-1.45-4.2-2.47-6.61-2.4-2.54.07-4.79,1.34-6.39,3.28-4.53,5.5-4.57,13.73-3.1,20.36.42,1.88,3.31,1.09,2.89-.8h0Z"/>
    <path class="cls-15" d="m297.76,387.73c-2.3-4.56-3.37-9.65-3.1-14.75.12-2.3.4-4.86,2.1-6.58,1.43-1.45,3.51-2.19,5.52-2.33,8.66-.61,15.08,7.37,19.62,13.65,3.64,5.03,7.18,10.13,10.77,15.19.62.87,2.01,1.06,2.59,0,4.8-8.83,7.3-18.78,7.2-28.84-.02-1.93-3.02-1.93-3,0,.09,9.53-2.24,18.95-6.79,27.32h2.59c-3.59-5.06-7.14-10.16-10.77-15.19-2.87-3.97-5.95-7.86-9.87-10.86-3.69-2.83-8.34-4.76-13.06-4.2-2.35.28-4.59,1.12-6.41,2.66-2.03,1.72-2.91,4.21-3.26,6.78-.86,6.39.4,12.93,3.29,18.67.87,1.72,3.46.21,2.59-1.51h0Z"/>
    <path class="cls-15" d="m310.2,320.32c-5.47-3.58-6.11-11.49-3.42-17,3.24-6.62,12.98-11.05,18.07-3.79,3.05,4.35,2.59,9.86,1.38,14.76l2.95.4c.43-6.52,6.55-11.95,13.1-11.24s11.64,6.73,10.76,13.33c-.47,3.56-2.48,6.89-5.51,8.82-1.62,1.03-.12,3.63,1.51,2.59,6.82-4.35,9.38-14.16,4.69-20.98s-14.25-9.03-21.04-4.09c-3.76,2.74-6.21,6.91-6.51,11.57-.11,1.7,2.54,2.03,2.95.4,1.3-5.27,1.74-11.06-.99-15.97-2.35-4.22-6.77-6.89-11.65-6.31-9.03,1.07-14.97,10.2-14.16,18.89.42,4.53,2.51,8.68,6.37,11.2,1.62,1.06,3.13-1.54,1.51-2.59h0Z"/>
    <path class="cls-15" d="m342.36,346.91s-.02.06-.03.1l.15-.36s-.02.04-.04.07l.23-.3s-.02.02-.03.03l.3-.23s-.01,0-.02.01l.36-.15s-.02,0-.03,0l.4-.05s-.02,0-.03,0l.4.05s-.02,0-.03,0l.36.15s-.03-.02-.05-.03l.3.23s-.04-.04-.06-.07l.23.3c-.04-.06-.08-.12-.11-.18l.15.36c-.04-.09-.06-.18-.08-.28l.05.4c0-.06-.01-.12,0-.18l-.05.4s.01-.07.03-.1l-.15.36s.02-.04.03-.06l-.23.3s.02-.02.03-.03l-.3.23s.03-.02.04-.03l-.36.15s.04-.01.05-.02l-.4.05s.05,0,.08,0l-.4-.05c.05,0,.1.02.15.04l-.36-.15s.09.04.13.07l-.3-.23s.07.06.1.1l-.23-.3s.06.09.08.14l-.15-.36c.02.05.03.11.04.16l-.05-.4c.01.08,0,.17,0,.25l.05-.4c-.02.11-.05.21-.09.31l.15-.36c-.05.1-.1.2-.17.29l.23-.3c-.06.08-.14.16-.22.22l.3-.23c-.07.05-.14.09-.21.13l.36-.15c-.08.03-.16.06-.25.07l.4-.05c-.1.01-.2,0-.3,0l.4.05c-.12-.02-.24-.05-.36-.09l.36.15c-.13-.05-.24-.12-.35-.21l.3.23c-.11-.09-.21-.18-.29-.29l.23.3c-.08-.11-.15-.23-.21-.35l.15.36c-.05-.11-.08-.23-.1-.36l.05.4c-.01-.11-.01-.22,0-.33l-.05.4c.02-.1.04-.2.08-.29l-.15.36c.05-.11.11-.21.18-.31l-.23.3c.08-.1.18-.2.28-.28l-.3.23c.11-.08.22-.15.34-.2l-.36.15c.13-.06.27-.09.41-.12l-.4.05c.13-.02.26-.02.39,0l-.4-.05c.11.02.21.05.32.09l-.36-.15s.06.03.09.04c.36.18.76.26,1.16.15.35-.1.73-.36.9-.69.18-.35.28-.77.15-1.16-.12-.36-.34-.72-.69-.9-.43-.22-.83-.33-1.31-.35-.33-.01-.69.04-1,.16-.46.18-.77.35-1.15.67-.13.11-.22.24-.32.37s-.2.26-.28.42c-.2.42-.35.88-.31,1.35s.15.92.39,1.35.57.73.96,1.01c.29.21.64.38.99.44.44.08.93.12,1.37-.03.4-.15.75-.33,1.05-.65.49-.51.83-1.24.8-1.95-.02-.39-.11-.8-.33-1.13-.3-.43-.71-.77-1.23-.89-.59-.14-1.25-.03-1.69.42-.34.36-.5.77-.53,1.26-.04.6.23,1.27.64,1.7s1.04.63,1.63.47,1.02-.67,1.19-1.26c.11-.37.04-.82-.15-1.16-.18-.31-.54-.61-.9-.69-.38-.09-.81-.07-1.16.15s-.58.51-.69.9h0Z"/>
    <path class="cls-15" d="m362.11,273.47c-9.42.14-18.84-.59-28.11-2.26-4.54-.82-9.05-1.84-13.49-3.1-.77-.22-1.59-.44-2.25-.93-.87-.66-.25-1.16.41-1.76,1.6-1.44,3.29-2.8,5.02-4.09,3.96-2.96,8.18-5.55,12.59-7.78.7-.36.95-1.4.54-2.05-2.42-3.8-4.91-7.56-7.25-11.4-.99-1.63-2.25-3.78-1.52-5.74.55-1.48,2.06-2.33,3.52-2.67,2.04-.48,4.21.11,6.16.73,2.19.69,4.35,1.46,6.52,2.19,4.48,1.51,8.95,3.03,13.43,4.54,5.02,1.7,10.05,3.4,15.07,5.1,1.83.62,2.62-2.28.8-2.89-9.97-3.37-19.94-6.74-29.91-10.12-4.23-1.43-9.19-3.79-13.69-2.2-4.11,1.45-6.05,5.39-4.5,9.52.96,2.54,2.63,4.8,4.08,7.07,1.57,2.46,3.13,4.93,4.7,7.39l.54-2.05c-4.41,2.23-8.63,4.83-12.59,7.78-1.93,1.44-3.84,2.94-5.63,4.55-1.59,1.44-2.48,3.5-1.01,5.38,1.28,1.63,3.42,2.13,5.32,2.65,2.53.69,5.09,1.31,7.66,1.86,5.11,1.1,10.28,1.91,15.48,2.47,6.02.65,12.06.91,18.11.82,1.93-.03,1.93-3.03,0-3h0Z"/>
    <path class="cls-15" d="m459.32,332.83c14.46-12.37,28.92-24.75,43.38-37.12,14.4-12.32,28.79-24.64,43.19-36.96,8.15-6.97,16.29-13.94,24.44-20.91,1.47-1.26-.66-3.37-2.12-2.12-14.46,12.37-28.92,24.75-43.38,37.12-14.4,12.32-28.79,24.64-43.19,36.96-8.15,6.97-16.29,13.94-24.44,20.91-1.47,1.26.66,3.37,2.12,2.12h0Z"/>
    <path class="cls-15" d="m526.32,347.28c1.38-7.21,2.76-14.42,4.14-21.63.36-1.89-2.53-2.69-2.89-.8-1.38,7.21-2.76,14.42-4.14,21.63-.36,1.89,2.53,2.69,2.89.8h0Z"/>
    <path class="cls-15" d="m528.78,325.86c6.97,1.34,13.94,2.67,20.91,4.01,1.89.36,2.69-2.53.8-2.89-6.97-1.34-13.94-2.67-20.91-4.01-1.89-.36-2.69,2.53-.8,2.89h0Z"/>
    <path class="cls-15" d="m617.07,282.19c1.16.15,1.49,2.06,1.2,3.16-.5,1.96-2.16,3.42-2.54,5.41-.21,1.1,0,2.28.82,3.09.71.7,1.65.98,2.61,1.14,2.39.4,4.79.77,7.18,1.16.8.13,1.61-.21,1.85-1.05.2-.71-.24-1.72-1.05-1.85-2.46-.4-4.92-.75-7.37-1.19-.45-.08-1.1-.13-1.14-.51-.03-.33.23-.77.38-1.05.25-.47.55-.91.83-1.36,1.1-1.84,1.93-3.99,1.4-6.15s-2.08-3.53-4.17-3.81c-.8-.11-1.5.77-1.5,1.5,0,.9.69,1.39,1.5,1.5h0Z"/>
    <path class="cls-15" d="m670.07,288.19c1.16.15,1.49,2.06,1.2,3.16-.5,1.96-2.16,3.42-2.54,5.41-.21,1.1,0,2.28.82,3.09.71.7,1.65.98,2.61,1.14,2.39.4,4.79.77,7.18,1.16.8.13,1.61-.21,1.85-1.05.2-.71-.24-1.72-1.05-1.85-2.46-.4-4.92-.75-7.37-1.19-.45-.08-1.1-.13-1.14-.51-.03-.33.23-.77.38-1.05.25-.47.55-.91.83-1.36,1.1-1.84,1.93-3.99,1.4-6.15s-2.08-3.53-4.17-3.81c-.8-.11-1.5.77-1.5,1.5,0,.9.69,1.39,1.5,1.5h0Z"/>
    <path class="cls-15" d="m629.19,305.72h11.33c1.93,0,1.93-3,0-3h-11.33c-1.93,0-1.93,3,0,3h0Z"/>
    <path class="cls-15" d="m634.92,298.16c.64,4.41.64,8.92.1,13.35-.1.81.76,1.5,1.5,1.5.89,0,1.4-.69,1.5-1.5.57-4.72.47-9.44-.2-14.14-.12-.8-1.13-1.24-1.85-1.05-.86.24-1.16,1.04-1.05,1.85h0Z"/>
    <path class="cls-15" d="m650.34,285.61c.4,9.04-.43,18.07-2.5,26.87-.44,1.88,2.31,2.64,2.89.8s1.69-3.4,3.28-4.43c.39-.25,1.49-.97,1.94-.56s-.05,1.62-.17,2.04c-.52,1.68-1.29,3.67-2.64,4.86-.42.37-1.11.88-1.69.57-.2-.11-.36-.35-.44-.55-.15-.37.03-.3-.1-.21,1.59-1.07.09-3.67-1.51-2.59-2.63,1.77-1.23,5.75,1.63,6.38,3.77.83,6.14-3.62,7.23-6.46.59-1.54,1.19-3.36.57-4.98s-2.35-2.35-4.03-2.04c-3.41.63-5.97,4.05-6.95,7.17l2.89.8c2.13-9.06,3.02-18.37,2.61-27.67-.09-1.92-3.09-1.93-3,0h0Z"/>
    <path class="cls-15" d="m602.23,292.79c-3.12,1.83-6.27,3.77-8.46,6.71-1.86,2.49-2.6,5.64-1.9,8.69s3.01,5.43,6.16,5.77,6.35-1.66,7.94-4.34c2.28-3.85,1.31-8.68-.57-12.46-.75-1.5-3.32-.45-2.74,1.16,1.42,3.97,2.84,7.93,4.26,11.9.65,1.8,3.55,1.03,2.89-.8-1.42-3.97-2.84-7.93-4.26-11.9l-2.74,1.16c1.3,2.61,2.07,5.82.97,8.64-.8,2.04-2.92,3.7-5.16,3.68-2.08-.02-3.42-1.72-3.85-3.61-.51-2.23.17-4.47,1.52-6.26,1.9-2.53,4.79-4.17,7.47-5.74,1.67-.98.16-3.57-1.51-2.59h0Z"/>
    <path class="cls-15" d="m676.93,309.83c4.19-.41,8.43-.26,12.57.52.8.15,1.62-.22,1.85-1.05.2-.73-.25-1.7-1.05-1.85-4.41-.82-8.9-1.06-13.37-.63-.81.08-1.5.63-1.5,1.5,0,.75.69,1.58,1.5,1.5h0Z"/>
    <path class="cls-15" d="m677.7,317.34l14.58,1.37c.81.08,1.5-.74,1.5-1.5,0-.87-.69-1.42-1.5-1.5l-14.58-1.37c-.81-.08-1.5.74-1.5,1.5,0,.87.69,1.42,1.5,1.5h0Z"/>
    <path class="cls-15" d="m711.7,305.06c-2.62-.02-5.28.14-7.71,1.19-2.22.96-3.93,2.72-4.74,5.01s-.34,4.62,1.25,6.3c1.38,1.46,3.45,2.01,5.41,1.99,2.33-.02,4.6-.7,6.69-1.67.74-.34.92-1.4.54-2.05-.44-.76-1.31-.88-2.05-.54-.05.02-.54.24-.28.13-.2.08-.4.16-.6.23-.41.15-.82.29-1.24.41s-.8.21-1.2.29c-.19.04-.38.07-.57.1-.05,0-.3.04-.03,0-.12.01-.24.03-.35.04-.39.04-.79.05-1.19.05-.18,0-.36-.01-.54-.03-.09,0-.18-.02-.27-.03.35.04-.08-.02-.12-.03-.34-.06-.66-.16-.99-.27-.27-.09-.04-.02.01,0-.07-.04-.15-.07-.22-.11-.18-.1-.36-.21-.53-.32-.23-.15-.03-.03,0,0-.06-.06-.13-.11-.19-.17-.12-.12-.24-.24-.35-.37.2.23-.14-.21-.18-.28s-.27-.57-.2-.37c-.08-.21-.13-.42-.18-.64-.06-.24.01.21,0-.04,0-.1-.02-.19-.02-.29,0-.22,0-.44.02-.66,0,.07-.06.25.01-.04.03-.12.05-.24.08-.37.05-.2.11-.39.18-.58.1-.26-.16.3.05-.13.04-.09.09-.18.14-.28.1-.18.2-.36.31-.53.16-.24.24-.35.32-.44.67-.74,1.09-1.07,2.01-1.53,2.01-.99,4.42-1.03,6.69-1.01,1.93.01,1.93-2.99,0-3h0Z"/>
    <path class="cls-15" d="m717.02,298.18c1.32.23,2.35,1.22,2.5,2.45.07.55-.07,1.16-.43,1.74-.2.33-.3.45-.64.75-.14.12-.16.14-.08.06-.09.06-.18.12-.27.17-.09.05-.19.11-.28.15.11-.04.08-.03-.09.03-1.45.52-1.39,2.35,0,2.89,3.47,1.37,7.26,1.94,10.98,1.67.81-.06,1.5-.65,1.5-1.5,0-.77-.69-1.56-1.5-1.5-3.49.25-6.92-.28-10.18-1.56v2.89c2.4-.87,4.24-3.3,3.98-5.93s-2.15-4.77-4.68-5.22c-.8-.14-1.62.22-1.85,1.05-.2.73.25,1.7,1.05,1.85h0Z"/>
    <path class="cls-15" d="m427.68,544.62c16.84,3.22,33.68,6.45,50.51,9.67l14.4,2.76c1.89.36,2.69-2.53.8-2.89-16.84-3.22-33.68-6.45-50.51-9.67-4.8-.92-9.6-1.84-14.4-2.76-1.89-.36-2.69,2.53-.8,2.89h0Z"/>
    <path class="cls-15" d="m492.83,550.81c-.65,3.41-1.31,6.83-1.96,10.24-.15.79.22,1.62,1.05,1.85.73.2,1.69-.25,1.85-1.05.65-3.41,1.31-6.83,1.96-10.24.15-.79-.22-1.62-1.05-1.85-.73-.2-1.69.25-1.85,1.05h0Z"/>
    <path class="cls-15" d="m427.38,538.27c-.65,3.41-1.31,6.83-1.96,10.24-.15.79.22,1.62,1.05,1.85.73.2,1.69-.25,1.85-1.05.65-3.41,1.31-6.83,1.96-10.24.15-.79-.22-1.62-1.05-1.85-.73-.2-1.69.25-1.85,1.05h0Z"/>
    <path class="cls-15" d="m441.2,518.97c1.48-.18,2.96-.3,4.45-.34.93-.02,1.93-.14,2.32.86.72,1.84-.67,4.03-1.79,5.38-1.47,1.76-3.36,3.19-4.7,5.05-.76,1.06-.95,2.43-.19,3.55.66.97,1.83,1.39,2.93,1.63,3.33.73,6.72,1.18,10.11,1.42,1.93.14,1.92-2.86,0-3-2.91-.21-5.79-.59-8.64-1.17-.54-.11-1.1-.21-1.63-.39-.4-.14-.33-.05-.1-.36.67-.9,1.56-1.67,2.35-2.46,1.57-1.59,3.17-3.27,4.07-5.34s1.18-4.63-.24-6.52c-.93-1.23-2.33-1.64-3.83-1.65-1.7-.01-3.42.14-5.11.35-.8.1-1.5.62-1.5,1.5,0,.73.69,1.6,1.5,1.5h0Z"/>
    <path class="cls-15" d="m468.88,519.23c-2.62-.95-5.42-1.35-8.2-1.18-.87.05-1.41.65-1.5,1.5-.15,1.42-.29,2.83-.44,4.25-.13,1.22-.47,2.59.27,3.68,1.16,1.73,3.56.69,4.81,2.33.99,1.3.68,2.93-.6,3.89-1.38,1.02-3.27,1.25-4.93,1.22-1.93-.03-1.93,2.97,0,3,2.19.04,4.58-.36,6.42-1.62,1.95-1.33,3.1-3.55,2.6-5.93-.47-2.24-2.33-4.19-4.62-4.54-.1-.01-1.19-.25-1.31-.16.14.31.2.39.18.23,0-.16.01-.31.03-.47.03-.33.07-.65.1-.98.17-1.64.34-3.27.5-4.91l-1.5,1.5c2.54-.15,5,.21,7.4,1.08,1.82.66,2.6-2.24.8-2.89h0Z"/>
    <path class="cls-15" d="m475.9,529.22c-1.65-.34-3.31-.17-4.83.58s-2.56,2.03-2.98,3.58c-.4,1.46-.22,3.17.65,4.44s2.35,2.07,3.94,2.03,3.29-.86,3.98-2.38c.32-.71.23-1.65-.54-2.05-.66-.35-1.71-.23-2.05.54-.04.1-.09.2-.15.29-.03.05-.06.09-.09.14-.12.2.07-.1.09-.11-.07.04-.16.17-.22.23-.03.03-.09.07-.12.1.2-.24.19-.14.04-.05-.09.06-.19.1-.28.16-.11.06-.2.03.14-.05-.05.01-.1.04-.15.06-.1.04-.21.07-.31.09-.05.01-.11.02-.16.03-.25.06.3-.02.11-.01-.22.01-.44.02-.66,0-.17,0-.2-.1.11.02-.05-.02-.12-.02-.16-.03-.12-.03-.24-.06-.36-.1-.33-.1.28.16-.02,0-.1-.05-.19-.11-.28-.16-.29-.17.22.22-.02-.01-.1-.1-.19-.19-.29-.29-.18-.19.07.06.06.09,0-.01-.09-.13-.1-.15-.07-.1-.12-.21-.18-.32-.12-.22.04.07.04.11,0-.03-.05-.13-.06-.17-.05-.14-.09-.29-.12-.44-.01-.05-.01-.13-.03-.18.01.03.03.38.02.12,0-.12-.02-.25-.02-.37s0-.25.01-.37c0-.15.08-.13-.02.12.03-.07.03-.16.04-.23.05-.25.13-.48.21-.72.07-.18-.13.27-.04.1.03-.05.05-.11.08-.17.07-.12.14-.24.22-.36.13-.21-.04.05-.07.08.05-.04.09-.11.13-.15.09-.1.18-.2.28-.29.05-.05.1-.09.15-.13.24-.23-.2.14-.03.02.12-.08.25-.17.38-.25.14-.09.29-.16.44-.23.19-.09-.05-.02-.08.03.02-.04.2-.07.24-.09.14-.05.29-.09.44-.13s.36-.04.5-.1c-.03.01-.37.04-.1.01.08,0,.17-.02.25-.02.15,0,.31-.01.46-.01.17,0,.34.02.51.03.24.02-.09-.02-.1-.01,0-.02.28.05.3.06.77.16,1.66-.22,1.85-1.05.17-.75-.23-1.68-1.05-1.85h0Z"/>
    <path class="cls-15" d="m477.77,530.64c-.31,2.61-.61,5.23-.92,7.84h3c0-.59.02-1.18.07-1.76.01-.13.02-.25.04-.38,0-.05.08-.47.01-.11.05-.29.1-.58.17-.86.06-.26.14-.51.23-.76.12-.37-.08.12.05-.14.05-.11.1-.21.16-.32.07-.12.14-.23.21-.35.19-.32-.12.09.08-.11.08-.08.15-.17.24-.25.04-.03.37-.29.21-.19s.21-.13.25-.15c.26-.14,0,.04-.27-.05-.03,0-.39-.18-.34-.26.05.07.09.14.13.22-.06-.17-.06-.17,0-.01.1.3.2.6.27.91.05.21.09.41.13.62.06.3,0-.11.03.23.03.37.05.73.04,1.11,0,.16-.01.32-.02.47,0,0-.05.48-.02.23-.05.36-.13.73-.23,1.08-.04.15-.09.3-.14.45-.02.05-.21.55-.13.38l2.8.76c-.06-.59-.11-1.17-.11-1.76,0-.16.01-.32.02-.48v-.16c0,.11,0,.11.01,0,.05-.29.13-.56.22-.84-.1.29.05-.07.07-.12.06-.1.12-.19.18-.28.09-.13-.13.12.06-.06.1-.09.19-.19.29-.27-.16.13-.03.03.07-.03.06-.03.11-.06.17-.09-.14.06-.16.07-.06.03.1-.02.2-.06.31-.08-.33.07.03.02.11.03-.2,0-.13,0,.03.03.15.02-.19-.13.03.01.11.08.27.21.09.04.09.08.17.17.26.26-.14-.14-.05-.08.03.04.06.09.11.18.16.27.18.33-.06-.25.04.11.03.12.06.24.1.37.08.28.02-.18,0,.06,0,.14.01.28.01.43,0,.36,0,.31-.09.7-.14.65-.37,1.27-.6,1.89-.27.74.3,1.68,1.05,1.85.85.19,1.56-.26,1.85-1.05.58-1.58,1.12-3.37.56-5.04-.52-1.54-1.73-2.79-3.4-2.96s-3.08.88-3.84,2.22c-.85,1.48-.78,3.23-.62,4.87.06.64.42,1.29,1.1,1.45.59.14,1.43-.07,1.69-.69.62-1.44.98-2.95.95-4.53-.01-.76-.11-1.54-.29-2.28-.15-.66-.36-1.4-.75-1.96-.61-.87-1.54-1.3-2.59-1.07-.72.16-1.41.65-1.93,1.15-.86.84-1.41,1.98-1.71,3.14-.34,1.31-.41,2.69-.42,4.03,0,.78.69,1.54,1.5,1.5.89-.04,1.4-.66,1.5-1.5.31-2.61.61-5.23.92-7.84.09-.78-.76-1.53-1.5-1.5-.89.04-1.4.66-1.5,1.5h0Z"/>
    <image width="1078" height="799" transform="translate(131.67 115.86) rotate(-20.06) scale(.12)" xlink:href="../../../../nerd lgasses.png"/>
    <path class="cls-8" d="m200.14,123.18c-.96.5-1.94.91-2.97,1.24-.47.15-.55.81-.11,1.05.79.44,1.63.55,2.51.37l-.47-1.04c-.83.57-1.53,1.25-2.12,2.07-.31.42.23.96.67.83.51-.16-.14,1.17-.26,1.34-.17.23-.25.61.02.81.16.12.33.25.49.37l.1-.91c-.4.29-.81.58-1.21.88-.15.11-.3.3-.27.5.05.41-.06.7-.42.91-.5.29-.25,1.08.32,1.07.48-.01,1.14-.04,1.51.32.22.21.31.64,0,.8-.41.22-.33.99.16,1.05.57.07,1.09.25,1.54.61.57.46,1.37-.37.79-.83s-1.28-.8-2.06-.89l.16,1.05c.78-.42.92-1.46.51-2.2-.53-.93-1.69-1.08-2.66-1.05l.32,1.07c.68-.39,1.07-1.14.97-1.92l-.27.5c.4-.29.81-.58,1.21-.88.27-.19.41-.67.1-.91-.16-.12-.33-.25-.49-.37l.02.81c.47-.63.96-1.54.75-2.36-.19-.73-.94-1.09-1.65-.88l.67.83c.47-.65,1.06-1.2,1.72-1.65.56-.38.16-1.17-.47-1.04-.57.12-1.12,0-1.62-.27l-.11,1.05c1.12-.36,2.2-.82,3.24-1.37.66-.34.05-1.32-.6-.98h0Z"/>
    <path class="cls-8" d="m202.14,122.86l-1.3,1.01c-.35.27-.38.96.16,1.05.49.08.98.16,1.47.24l-.03-1.11c-1.35.31-1.54,2.22-.43,2.92l-.28-.64c-.02.07-.46.23-.58.31-.27.16-.51.39-.55.72-.06.45.23.67.46,1.01.28.42.26,1.05.26,1.54,0,1.03-.9,1.52-1.12,2.46-.18.77.16,1.65.98,1.84l-.36-.84c-.29.43-.57.86-.86,1.29-.41.62.6,1.17,1.01.56.29-.43.57-.86.86-1.29.21-.31-.02-.76-.36-.84-.62-.15.55-1.5.67-1.71.39-.68.38-1.47.31-2.22-.03-.37-.09-.74-.24-1.08-.07-.15-.15-.38-.29-.48-.07-.17-.13-.18-.17-.03-.09.12-.09.14.02.06.16,0,.52-.26.64-.35.23-.17.38-.38.45-.65.07-.26-.07-.51-.28-.64-.33-.21-.11-.74.21-.81.54-.12.53-1.02-.03-1.11-.49-.08-.98-.16-1.47-.24l.16,1.05,1.3-1.01c.58-.45-.02-1.43-.6-.98h0Z"/>
    <path class="cls-8" d="m202.56,124.02c.19.1.35.16.57.15.11-.01.21-.03.31-.06.27-.03.27-.18,0-.45l.26-.35-.08.05c-.47.3-.27,1.1.32,1.07,1.16-.07,2.31-.07,3.46.01l-.59-.56c0,.15-.01.3-.02.45-.02.33.3.54.59.56.65.05,1.37.02,2,.15.37.08.31.23.16.54-.13.27-.27.53-.39.81-.51,1.12-.92,2.28-1.23,3.46-.16.59-.29,1.18-.4,1.78s-.06,1.05.14,1.65c.21.62-.24,1.18-.64,1.62-.46.51-.97.96-1.53,1.36-.59.43,0,1.42.6.98,1.08-.79,2.56-1.93,2.76-3.36.05-.36,0-.68-.13-1.02-.15-.43-.14-.7-.05-1.16.16-.81.36-1.61.6-2.4.23-.74.49-1.47.8-2.17.27-.61.76-1.28.77-1.98,0-.61-.42-1.06-1-1.2-.79-.18-1.68-.15-2.49-.21l.59.56c0-.15.01-.3.02-.45.02-.33-.3-.54-.59-.56-1.15-.08-2.31-.08-3.46-.01l.32,1.07c.43-.27.46-.79.12-1.16-.15-.16-.36-.27-.57-.3-.12-.02-.64.15-.66.14-.65-.36-1.2.65-.56,1.01h0Z"/>
    <path class="cls-8" d="m199.12,135.62c.96.48,2,.65,3.05.82,1.23.2,2.46.4,3.69.6.73.12,1.01-1,.28-1.12-1.15-.19-2.31-.37-3.46-.56-1.01-.16-2.06-.28-2.99-.75-.66-.33-1.22.67-.56,1.01h0Z"/>
    <path class="cls-8" d="m200.78,124.9l1.3-.21c.31-.05.47-.45.39-.72-.1-.33-.41-.44-.72-.39l-1.3.21c-.31.05-.47.45-.39.72.1.33.41.44.72.39h0Z"/>
    <path class="cls-8" d="m209.62,127.7l.06-.06-.4.18c-.21-.46-.35-.53-.44-.2-.06.12-.12.25-.17.37-.08.19-.16.38-.23.57-.18.46-.34.93-.47,1.4-.09.33-.28,2.17-.76,2.12s-.66.54-.48.88c.23.43.6.69,1.06.82.25.07.51-.07.64-.28.38-.62.75-1.24,1.13-1.86.15-.24.37-.49.37-.78,0-.26-.16-.56-.21-.82-.2-1.12.1-2.31.79-3.21.45-.58-.38-1.38-.83-.79-1.1,1.43-1.46,3.28-.88,5.01l.05-.44c-.48.78-.95,1.57-1.43,2.35l.64-.28c-.19-.05-.27-.14-.36-.31l-.48.88c1.58.16,1.66-2.39,1.97-3.39.14-.44.3-.88.48-1.3.16-.36.41-.72.41-1.13-.01-.66-.82-1.04-1.29-.52-.49.55.34,1.35.83.79h0Z"/>
    <path class="cls-8" d="m208.71,129.53l1.13-.39-.72-.69-.02.09.26-.35.31-.02.27.34c-.1-.24.17-.81.24-1.06.1-.39.2-.78.3-1.17.19-.72-.93-1-1.12-.28-.13.49-.26.99-.39,1.48-.11.4-.31.87-.17,1.29.24.69,1.26.7,1.43-.05.09-.41-.29-.84-.72-.69l-1.13.39c-.7.24-.37,1.35.33,1.1h0Z"/>
    <path class="cls-8" d="m209.42,125.86c.91.27.72,1.39-.13,1.56-.37.08-.5.56-.32.85-.03-.06-.07.08-.13.16-.1.11-.23.19-.33.3-.17.18-.31.38-.39.62-.18.58.03,1.16.2,1.72.09.31.18.61.27.92.03.1.17.36.13.46-.02.06-.05.07-.12.13-.31.26-.71.24-.94.63-.22.37-.13.78.07,1.13.06.1.11.25.16.17.08-.14-.16.03-.19.05-.15.09-.31.17-.43.3-.35.38-.29.83-.06,1.25.18.33.21.92-.31.99-.73.1-.71,1.25.03,1.15,1.09-.15,1.89-1.25,1.49-2.34-.05-.12-.13-.32-.22-.41.07.07-.22.19.12.03.2-.09.39-.22.53-.4.33-.43.23-1.01-.12-1.4.03.04-.23.13.07.01.1-.04.2-.08.29-.12.21-.1.4-.21.55-.38.48-.55.16-1.29-.02-1.89-.11-.37-.23-.74-.33-1.12-.13-.49-.02-.62.33-.95.46-.44.69-1.04.34-1.62l-.32.85c.87-.18,1.56-.96,1.58-1.86s-.64-1.68-1.5-1.93c-.71-.21-.99.91-.28,1.12h0Z"/>
    <path class="cls-8" d="m207.33,136.92l-.75-.55c-.25-.18-.66-.03-.78.23-.15.31-.04.59.23.78l.75.55c.25.18.66.03.78-.23.15-.31.04-.59-.23-.78h0Z"/>
    <path class="cls-8" d="m203.09,125c1.74.53,3.51.91,5.31,1.14.59.07,1.07-.77.42-1.06-.98-.45-2.01-.68-3.09-.67l.18,1.13c.66-.16,1.31-.07,1.91.25l.11-1.05c-.8.29-1.62.54-2.45.74-.43.1-.87.19-1.31.26-.18.03-.35.05-.53.07-.1.01-.19.02-.29.03-.17-.04-.27.02-.32.2l-.85-.32c.23,1.14.27,2.32.11,3.48l1.13.13c.07-1.48.25-2.94.55-4.38l-.84.36c1.12.57.47,2.06.08,2.89l.78-.23c-.57-.37-.04-1.21.49-1.27.6-.06,2.07.92,1.07,1.34-.2.09-.87.3-1.04.06-.27-.39.44-.89.76-.87.99.08.76,1.5-.23,1.44l.59.56c.02-.59,0-1.35.51-1.76.15-.12.4-.27.59-.13.13.09.16.27.06.37l.97.23c-.15-.58.19-1.16.76-1.34l-.72-.39c.1.24.07.42-.17.56l.7.07.04-.09-1.05.16c0-.06.04-.08.12-.06l.44.54c0-.56.23-1.06.7-1.39l-.85-.32c.28.86,0,1.82-.76,2.35l.81.77c.47-1.15.97-2.29,1.5-3.43l-1.05-.11c.31,1.29-.46,2.62-.96,3.77-.54,1.26-1.09,2.52-1.63,3.78l1.08.27c-.22-1.44-.17-2.87.18-4.28l-1.11.03c.69,2.04-.46,4.21.08,6.3.07.27.32.39.56.41.86.07,1.25-.78,1.46-1.47.31-1.03.53-2.09.69-3.16.11-.72-.95-1.01-1.12-.28-.51,2.26-1,4.54-.86,6.87l1.13-.18c-.48-1.52-1.67-2.69-3.16-3.23-.76-.28-1.6-.36-2.39-.22-.71.13-1.41.78-.95,1.53s1.45.61,2.16.61c.56,0,1.11,0,1.67,0,.43,0,.89.03,1.31-.08.73-.19,1.27-.88.88-1.63-.42-.81-1.39-.96-2.21-.97-.44,0-.88.03-1.29-.14-.57-.24-.46-.62-.14-1.05.69-.95,1.55-1.8,2.47-2.53l-.88-.48c.02,1.55-.42,3.01-1.26,4.31l1.08.27c-.09-1.16.02-2.28.36-3.39.19-.62-.79-1.02-1.06-.42l-1.23,2.69,1.05.11c-.25-.92-.16-1.86.27-2.71l-1.08-.27c-.02,1.29-.27,2.56-.75,3.76l1.05.11c-.35-.89-.61-1.81-.75-2.76-.09-.61-.95-.8-1.13-.13-.17.63-.43,1.2-.78,1.75l1.08.27c.04-1.88.32-3.73.81-5.55l-1.11.03c.21,1.22.34,2.46.37,3.71.02.66.04,1.83-.74,2.07l.72.69c.21-1.31.68-2.51,1.41-3.62l-1.05-.11c.24.76.11,1.52-.04,2.29-.12.61-.39,1.43-.22,2.05.16.58.74.77,1.28.68.83-.14,1.66-.5,2.46-.75.44-.14.58-.84.11-1.05-.64-.3-1.28-.6-1.93-.89s-1.23.7-.56,1.01,1.28.6,1.93.89l.11-1.05c-.61.19-1.23.39-1.84.58-.16.05-.31.11-.47.14.02,0-.02.27.02,0,.05-.31.09-.62.14-.93.21-1.1.45-2.19.1-3.29-.16-.5-.79-.52-1.05-.11-.78,1.18-1.3,2.5-1.52,3.89-.07.42.28.83.72.69,1.12-.34,1.49-1.49,1.55-2.56.1-1.54-.15-3.14-.41-4.65-.1-.59-.97-.48-1.11.03-.52,1.91-.8,3.88-.85,5.86-.01.6.79.72,1.08.27.4-.63.69-1.31.88-2.02l-1.13-.13c.16,1.06.41,2.07.8,3.07.16.4.85.62,1.05.11.56-1.4.87-2.84.9-4.35.01-.57-.82-.77-1.08-.27-.57,1.13-.7,2.38-.37,3.6.13.45.85.57,1.05.11l1.23-2.69-1.06-.42c-.36,1.2-.5,2.44-.4,3.69.05.58.77.75,1.08.27.95-1.46,1.43-3.15,1.41-4.89,0-.4-.53-.75-.88-.48-.77.61-1.49,1.26-2.13,2-.53.62-1.27,1.39-1.18,2.27.07.71.67,1.19,1.31,1.41.79.28,1.7-.02,2.46.29.65.26-.2.26-.45.26-.59,0-1.19,0-1.78,0-.22,0-.45,0-.67,0-.2,0-.51-.07-.7-.03-.16-.09-.18-.03-.05.2.1-.03.21-.05.31-.05.16-.02.31-.02.47-.01,1.6.05,3.08,1.18,3.56,2.7.19.61,1.17.48,1.13-.18-.14-2.23.34-4.4.83-6.56l-1.12-.28c-.11.71-.24,1.42-.41,2.12-.07.28-.28,1.67-.65,1.64l.56.41c-.53-2.09.63-4.21-.08-6.3-.18-.53-.97-.54-1.11.03-.37,1.51-.45,3.05-.22,4.59.07.49.82.86,1.08.27.63-1.47,1.26-2.93,1.9-4.4.56-1.3,1.13-2.61.79-4.05-.11-.47-.85-.56-1.05-.11-.53,1.13-1.03,2.27-1.5,3.43-.2.48.28,1.14.81.77,1.17-.82,1.7-2.29,1.26-3.66-.11-.33-.54-.54-.85-.32-.8.57-1.25,1.42-1.24,2.4,0,.23.19.51.44.54.91.12,1.68-.82,1.14-1.66-.29-.44-.89-.29-1.05.16s-.02.86.29,1.21c.17.19.49.19.7.07.65-.38.95-1.17.67-1.87-.12-.29-.4-.48-.72-.39-1.17.37-1.83,1.59-1.53,2.77.11.44.67.52.97.23.9-.85.1-2.37-1.06-2.36-1.65.02-2.03,1.82-2.07,3.12-.01.33.29.55.59.56,1.67.09,2.64-1.91,1.49-3.14s-3.39-.28-3.21,1.45,2.88,1.44,3.55.23c.86-1.54-1.32-3.01-2.67-2.79-1.6.26-2.22,2.48-.8,3.39.25.16.66.04.78-.23.67-1.42,1.26-3.55-.53-4.46-.32-.16-.76-.01-.84.36-.31,1.55-.5,3.11-.58,4.69-.03.64,1.04.77,1.13.13.2-1.37.16-2.73-.12-4.09-.08-.4-.55-.47-.85-.32-.47.22-.59.81-.4,1.26.26.61.94.7,1.53.65,1.6-.16,3.19-.57,4.7-1.13.45-.17.57-.81.11-1.05-.88-.48-1.83-.59-2.8-.35-.64.16-.46,1.13.18,1.13.87,0,1.71.16,2.51.53l.42-1.06c-1.8-.23-3.57-.61-5.31-1.14-.71-.22-.99.9-.28,1.12h0Z"/>
    <path class="cls-8" d="m199.96,134.41c-.08-1.1-.17-4.97-2.23-4.03-.3.14-.32.54-.19.79.61,1.19,1.43,2.26,2.41,3.16.34.32,1.02.09.97-.43l-.35-3.66c-.06-.61-.12-1.22-.18-1.83-.05-.55-.13-1.14.1-1.66l-1.05-.11c.2,1.19.15,2.4-.11,3.57l1.11-.03c-.43-1.01-.41-2.01.03-3.01.35-.8.59-1.59-.03-2.32l-.79.83c.82.65,1.28,1.56,1.26,2.61l1.07-.32c-.51-.8-.75-1.65-.75-2.6l-1.15.03c.11,1.41.07,2.81-.12,4.21l1.13.13c-.06-1.12,0-2.22.2-3.32l-1.11.03c.3,1.1.38,2.23.21,3.36l1.05-.16-1.96-3.74c-.22-.42-.98-.32-1.05.16-.28,1.93-.25,3.85.1,5.78.11.61.95.46,1.11-.03.25-.77.05-1.67.38-2.41.23-.52.83-.82,1.38-.83,1.38,0,1.69,1.76.77,2.56l.99.38c-.05-1.26.36-2.46,1.19-3.41.49-.56-.31-1.33-.83-.79-.42.43-.94.58-1.53.53l.52.85c.28-.68.77-1.4,1.58-1.45.6-.04,1.45.58.95,1.24l.92.68c.22-.41.82-.35,1.01.04l.48-.88c-.26.04-.45-.65-.56-.85-.21-.41-.52-.75-.89-1.02-.75-.54-1.65-.7-2.54-.51-.53.12-.54,1.04.03,1.11.07-.03.12-.01.15.04l1.11-.03c-.67-1.55-2.15-2.56-3.85-2.53-.32,0-.56.28-.56.59,0,1.09.05,2.18.15,3.27.05.51.13,1.02.18,1.53.02.23.07.51-.02.73-.03.06-.22.29-.19.25l-.64.28c2.3.79,3.62,3.24,6.03,3.83.54.13,1.12-.01,1.18-.66.03-.37-.15-.75-.26-1.09-.14-.43-.28-.86-.42-1.29-.54-1.65-1.07-3.31-1.61-4.96-.23-.7-1.33-.38-1.1.33.38,1.19.77,2.37,1.15,3.56.19.58.37,1.15.56,1.73.09.29.19.58.28.86l.14.43.07.22c.03.13.04.14.03.06l.34-.27c.17-.04-.15-.05-.23-.07-.15-.04-.29-.1-.44-.16-.28-.12-.55-.28-.81-.44-.53-.35-1.01-.76-1.5-1.17-.96-.82-1.93-1.6-3.14-2.01-.26-.09-.5.08-.64.28-.4.55-.09,1.34.5,1.61.7.33,1.45-.17,1.74-.81.38-.83.04-1.91-.04-2.77-.1-1.09-.15-2.18-.15-3.27l-.56.59c1.15-.02,2.26.64,2.72,1.71.2.46,1.02.6,1.11-.03.1-.67-.26-1.35-.98-1.44l.03,1.11c.86-.19,1.72.26,2.12,1.02.34.64.68,1.53,1.57,1.4.45-.06.69-.46.48-.88-.59-1.17-2.41-1.13-3,0-.29.55.51,1.21.92.68.85-1.1.33-2.71-1.03-3.09-1.49-.42-2.8.65-3.34,1.96-.18.43.06.81.52.85.89.09,1.72-.25,2.33-.88l-.83-.79c-1.03,1.18-1.57,2.66-1.51,4.23.02.53.62.7.99.38,1.5-1.29.94-4.07-1.07-4.46-.88-.17-1.85.12-2.48.76-.91.93-.56,2.17-.92,3.29l1.11-.03c-.31-1.7-.33-3.45-.08-5.16l-1.05.16,1.96,3.74c.22.42.98.32,1.05-.16.19-1.34.13-2.66-.23-3.97-.14-.53-1.01-.54-1.11.03-.22,1.2-.3,2.41-.23,3.63.03.62,1.04.8,1.13.13.21-1.5.27-3,.16-4.51-.06-.74-1.15-.72-1.15.03,0,1.13.32,2.22.92,3.17.31.49,1.06.25,1.07-.32.02-1.33-.57-2.6-1.62-3.42-.59-.46-1.28.27-.79.83.22.26-.18.91-.28,1.16-.16.38-.28.76-.34,1.17-.12.85-.02,1.7.32,2.5.21.48.97.58,1.11-.03.31-1.39.33-2.78.1-4.19-.08-.47-.87-.55-1.05-.11-.48,1.16-.22,2.41-.11,3.62l.4,4.12.97-.43c-.92-.85-1.66-1.82-2.23-2.94l-.19.79c-.15,0-.15.05-.01.15.06.09.11.19.14.3.09.27.12.58.16.87.09.58.15,1.17.19,1.75.05.74,1.2.71,1.15-.03h0Z"/>
    <path class="cls-8" d="m208.58,126.65l.77.82c.14.15.35.32.46.49l.11-.03c-.07.03-.14.06-.21.08-.69.28-1.41.51-2.11.77-.48.18-.53.78-.11,1.05.31.2.62.41.93.61l-.02-.99c-.49.28-.7.86-.54,1.4.17.59.7.92,1.23,1.16.3.14.78.03.84-.36.07-.5-.01-1.05.19-1.49.01-.03.14-.05.14-.06.01-.07-.09-.2-.14-.2-.1,0-.42.18-.54.2-.58.12-.49.97.03,1.11-.06-.16-.13-.19-.19-.1-.06.05-.12.11-.18.15-.12.1-.24.18-.35.29-.23.24-.38.56-.45.89-.09.44.14,1.71-.42,1.87s-.48.93.03,1.11,1.06-.05,1.4-.47c.41-.51.36-1.15.31-1.76-.03-.32-.01-.54.09-.84.04-.11.14-.2.05-.26-.03-.02-.29.07-.33.07-.45.08-.87.17-1.18.53-.3.34-.14.82.28.96.28.09.55.17.83.26l-.36-.84c-.35.54-.7,1.08-1.06,1.63-.4.62.61,1.18,1.01.56.35-.54.7-1.08,1.06-1.63.21-.33-.03-.73-.36-.84-.28-.09-.55-.17-.83-.26l.28.96c.34-.39,1.11-.18,1.52-.58.51-.51.31-1.31-.3-1.61-.71-.35-1.47.07-1.73.78-.13.37-.13.75-.1,1.14.02.22.19,1.24-.28,1.08l.03,1.11c.54-.16.89-.57,1.05-1.1.18-.57-.04-1.3.22-1.82s.87-.61.97-1.25c.08-.53-.18-1-.7-1.14l.03,1.11c.51-.11,1.08-.36,1.29-.87s-.03-1.11-.56-1.31c-.48-.18-1.06.01-1.4.38-.52.54-.35,1.31-.44,1.98l.84-.36c-.07-.03-.91-.43-.64-.58.4-.23.32-.77-.02-.99-.31-.2-.62-.41-.93-.61l-.11,1.05c.6-.22,1.21-.44,1.81-.66.42-.15.93-.28,1.18-.69s.11-.87-.16-1.22c-.41-.53-.93-1.01-1.39-1.5-.51-.54-1.3.29-.79.83h0Z"/>
    <path class="cls-8" d="m210.03,128.97l.67-.02c.74-.02.71-1.14-.03-1.15-.27,0-.55,0-.82-.01l.43.97c.47-.46.94-.93,1.41-1.39.21-.2.22-.62-.02-.81-.39-.31-.81-.48-1.31-.46l.43.97c.33-.32.67-.65,1-.97.31-.3.14-.86-.28-.96-.36-.08-.71-.16-1.07-.24-.72-.16-1,.95-.28,1.12.36.08.71.16,1.07.24l-.28-.96c-.33.32-.67.65-1,.97-.36.35-.06.99.43.97.19,0,.33.01.49.14l-.02-.81c-.47.46-.94.93-1.41,1.39-.37.36-.05.96.43.97.27,0,.55,0,.82.01l-.03-1.15-.67.02c-.74.02-.71,1.17.03,1.15h0Z"/>
    <path class="cls-12" d="m200.71,123.03l-3.01,1.08c-.12.05-.18.26-.03.32l1.14.47v-.3c-.53.25-1.05.5-1.57.74-.1.05-.1.2-.03.27.22.22.49.38.79.46l-.08-.29c-.38.39-1,.72-1.15,1.28s.34.9.76,1.12c.17.09.4.18.5.35.12.19-.05.37-.22.45-.27.12-.58.11-.85.24s-.53.36-.55.66c-.03.43.45.54.76.65.46.16.92.32,1.39.48l-.05-.31c-.71.48-1.56,1.11-1.45,2.08.04.37.22.74.56.93.18.1.38.12.57.15.16.02.39.05.43.25.02.14-.03.28-.05.41-.02.12-.03.23,0,.35.04.21.17.42.4.44.09.01.18-.03.21-.13.02-.08-.03-.2-.13-.21-.15-.02-.16-.21-.15-.33.03-.22.11-.42.06-.64-.09-.4-.5-.46-.84-.51s-.57-.23-.67-.56-.02-.69.17-.98c.26-.41.69-.69,1.08-.95.13-.09.09-.27-.05-.31-.39-.13-.78-.27-1.17-.4-.17-.06-.35-.11-.52-.18-.11-.04-.23-.1-.18-.24.08-.25.41-.35.64-.4.26-.05.54-.11.75-.27.19-.15.3-.38.25-.63-.04-.21-.2-.36-.37-.47-.3-.2-.88-.35-.94-.77-.04-.26.19-.48.36-.64.23-.22.49-.41.72-.65.09-.1.04-.25-.08-.29-.25-.07-.46-.2-.64-.38l-.03.27c.52-.25,1.04-.5,1.56-.74.11-.05.11-.25,0-.3l-1.14-.47-.03.32,3.01-1.08c.21-.07.11-.41-.1-.33h0Z"/>
    <path class="cls-12" d="m204.4,123.34c-.99.48-1.9,1.11-2.72,1.85-.08.07-.05.22.04.27.67.35,1.45.43,2.18.24l-.22-.16c-.02.48-.64.7-1,.86-.45.2-.97.59-.97,1.13,0,.27.16.45.36.61.07.06.18.13.18.23,0,.08-.06.17-.11.23-.11.17-.26.32-.29.53-.04.25.14.43.36.52.2.08.41.14.37.4-.05.24-.24.47-.42.61-.39.3-.99.67-.89,1.25.04.26.23.44.46.55.21.1.48.16.64.35.15.18.18.44.09.65s-.31.35-.48.48c-.19.15-.41.31-.49.55-.08.22.02.46.2.59s.4.17.61.21c.12.02.37.04.37.19l.12-.17c-.41.09-.65.6-.44.97s.73.41,1.03.15c.17-.14-.08-.38-.25-.24-.14.12-.4.07-.49-.09-.1-.19.05-.42.24-.46.07-.02.13-.1.12-.17-.03-.44-.5-.48-.84-.55-.13-.03-.35-.08-.37-.24s.21-.32.31-.4c.18-.15.39-.28.53-.47.16-.19.22-.45.2-.69s-.15-.49-.35-.65-.45-.21-.67-.33c-.6-.35.18-.92.49-1.14.36-.26.79-.8.57-1.26-.11-.25-.35-.29-.57-.39-.2-.1-.07-.26.03-.39.12-.17.26-.34.26-.56,0-.28-.23-.41-.41-.57-.22-.2-.12-.46.05-.66.2-.23.45-.36.72-.48.49-.22,1.05-.51,1.07-1.12,0-.12-.12-.19-.22-.16-.64.17-1.32.09-1.91-.21l.04.27c.79-.72,1.69-1.33,2.65-1.8.2-.1.02-.39-.18-.29h0Z"/>
    <path class="cls-12" d="m208.95,123.97l1.85.84c.28.13.57.24.83.4.19.12.42.29.48.52.13.5-.68.5-.97.59-.22.08-.44.21-.56.42-.13.23-.07.46.08.66.07.09.14.18.12.3-.02.11-.09.19-.16.27-.19.19-.44.3-.69.38-.11.03-.15.16-.1.26.25.49.74.85,1.29.93l-.13-.21c-.11.33-.39.55-.73.62-.16.03-.16.31,0,.33.45.07.85.32,1.11.69v-.17c-.09.18-.32.2-.5.23-.22.03-.47.05-.66.18-.23.14-.33.42-.25.68.1.3.38.52.63.68v-.3c-.31.21-.61.41-.91.62-.14.09-.08.33.09.32.08,0,.07.09.06.16-.02.14-.08.24-.19.32-.27.19-.65.39-.67.76-.01.19.12.36.1.55-.01.13-.1.23-.19.31-.25.21-.61.3-.92.34-.13.02-.21.14-.14.26.14.27.28.54.42.81l.1-.26c-.35.15-.71.3-1.06.45-.1.04-.17.16-.1.26l.59.84.1-.26c-1.04.25-2.1-.14-3.09-.42s-2.09-.47-3.17-.52c-.61-.03-1.21-.01-1.82.04-.22.02-.21.36,0,.35,1.08-.1,2.18-.06,3.25.11.54.09,1.06.2,1.59.35s1.03.32,1.56.42c.58.12,1.18.15,1.76.01.1-.03.16-.17.1-.26l-.59-.84-.1.26c.35-.15.71-.3,1.06-.45.11-.05.15-.15.1-.26-.14-.27-.28-.54-.42-.81l-.14.26c.55-.07,1.39-.31,1.45-.97.02-.19-.08-.33-.1-.51-.01-.15.13-.26.24-.34.26-.19.52-.32.61-.66.07-.29-.03-.66-.39-.65l.09.32c.3-.21.6-.41.9-.62.11-.08.11-.23,0-.3-.18-.11-.51-.33-.49-.58.02-.18.22-.24.37-.27.37-.08.83-.06,1.02-.45.03-.05.03-.12,0-.17-.31-.45-.78-.76-1.32-.85v.33c.46-.09.82-.43.97-.87.03-.08-.04-.2-.13-.21-.47-.07-.86-.35-1.08-.78l-.1.26c.43-.13,1.02-.43,1.1-.92.02-.11,0-.23-.04-.33-.05-.13-.2-.24-.23-.38-.05-.23.31-.38.48-.42.25-.06.5-.08.73-.2s.39-.33.4-.58c.03-.57-.62-.93-1.06-1.14l-2.29-1.04c-.2-.09-.37.21-.17.3h0Z"/>
    <path class="cls-12" d="m200.11,137.02c1.72.32,3.49.37,5.22.13.22-.03.22-.33,0-.35-.97-.07-1.95-.14-2.92-.22-.46-.03-.93-.06-1.39-.1-.31-.03-.63-.08-.92-.2-.31-.13-.57-.33-.65-.67l-.25.2c1.66.7,3.46,1.03,5.26.95.51-.02,1.01-.08,1.51-.16.22-.04.12-.37-.1-.33-2.18.37-4.47.1-6.5-.76-.14-.06-.29.05-.25.2.17.7.91.97,1.55,1.07.44.07.88.08,1.32.12.52.04,1.04.08,1.56.12.6.04,1.19.09,1.79.13v-.35c-1.71.23-3.45.2-5.14-.12-.22-.04-.3.29-.08.34h0Z"/>
  </g>
  <g id="Layer_1" data-name="Layer 1">
    <g>
      <rect class="cls-14" x="2.03" y="643.77" width="708.47" height="280" rx="25.05" ry="25.05"/>
      <path d="m688.37,925.77H24.15c-13.17,0-23.89-12.13-23.89-27.05v-229.9c0-14.91,10.72-27.05,23.89-27.05h664.21c13.17,0,23.89,12.13,23.89,27.05v229.9c0,14.91-10.72,27.05-23.89,27.05ZM24.15,645.77c-11.23,0-20.36,10.34-20.36,23.05v229.9c0,12.71,9.13,23.05,20.36,23.05h664.21c11.23,0,20.36-10.34,20.36-23.05v-229.9c0-12.71-9.13-23.05-20.36-23.05H24.15Z"/>
    </g>
    <rect class="cls-3" x="165.26" y="713.77" width="383" height="129" rx="36.05" ry="36.05"/>
    <text class="cls-10" transform="translate(332.68 760.92)"><tspan class="cls-7"><tspan class="cls-13" x="0" y="0">T</tspan><tspan x="15.19" y="0">he</tspan></tspan><tspan class="cls-11"><tspan x="-67" y="44">Sma</tspan><tspan class="cls-16" x="21.64" y="44">r</tspan><tspan class="cls-5" x="38.83" y="44">t</tspan><tspan x="54.76" y="44">est</tspan></tspan></text>
  </g>
  <g id="Layer_3" data-name="Layer 3">
    <path class="cls-9" d="m548.26,795.31s-21.37-73.54-94.18-81.54l63.82.45s28.36,6.64,30.36,35.6v45.49Z"/>
    <rect class="cls-1" x="164.26" y="713.77" width="383" height="129" rx="36.05" ry="36.05"/>
    <path class="cls-4" d="m629.17,643.77h60.94s18.61,3.46,20.38,22.73v62.83s-1.41-83.56-81.32-85.56Z"/>
    <path d="m688.11,926.13H23.89c-13.17,0-23.89-12.13-23.89-27.05v-229.9c0-14.91,10.72-27.05,23.89-27.05h664.21c13.17,0,23.89,12.13,23.89,27.05v229.9c0,14.91-10.72,27.05-23.89,27.05ZM23.89,646.13c-11.23,0-20.36,10.34-20.36,23.05v229.9c0,12.71,9.13,23.05,20.36,23.05h664.21c11.23,0,20.36-10.34,20.36-23.05v-229.9c0-12.71-9.13-23.05-20.36-23.05H23.89Z"/>
  </g>
</svg>