<?xml version="1.0" encoding="UTF-8"?>
<svg xmlns="http://www.w3.org/2000/svg" viewBox="0 0 712.26 1068.21">
  <defs>
    <style>
      .cls-1, .cls-2 {
        fill: none;
      }

      .cls-1, .cls-2, .cls-3 {
        stroke: #000;
        stroke-miterlimit: 10;
      }

      .cls-1, .cls-3 {
        stroke-width: 4px;
      }

      .cls-4 {
        fill: #4f2502;
      }

      .cls-5 {
        letter-spacing: 0em;
      }

      .cls-6 {
        fill: #fff;
        font-family: MyriadPro-Regular, 'Myriad Pro';
      }

      .cls-7 {
        letter-spacing: 0em;
      }

      .cls-2 {
        stroke-width: 10px;
      }

      .cls-8, .cls-3 {
        fill: #ffd400;
      }

      .cls-9 {
        font-size: 31px;
      }

      .cls-10 {
        fill: #e2b703;
      }

      .cls-11 {
        font-size: 49px;
      }

      .cls-12 {
        fill: #5b2b00;
      }
    </style>
  </defs>
  <g id="Layer_2" data-name="Layer 2">
    <g>
      <g>
        <rect class="cls-8" x="397.03" y="158" width="21.27" height="658.67" transform="translate(940.29 833.72) rotate(162.95)"/>
        <path d="m298.97,174.54l23.35-7.16,194.03,632.74-23.35,7.16L298.97,174.54Zm21.26-3.22l-17.32,5.31,192.18,626.71,17.32-5.31L320.24,171.32Z"/>
      </g>
      <g>
        <rect class="cls-8" x="276.13" y="206.11" width="21.27" height="152.85" transform="translate(472.81 -74.46) rotate(72.95)"/>
        <path d="m208.61,293.73l149.14-45.74,7.16,23.35-149.14,45.74-7.16-23.35Zm147.06-41.8l-143.12,43.89,5.31,17.32,143.12-43.89-5.31-17.32Z"/>
      </g>
      <g>
        <rect class="cls-8" x="307.54" y="308.55" width="21.27" height="152.85" transform="translate(592.95 -32.09) rotate(72.95)"/>
        <path d="m240.03,396.17l149.14-45.74,7.16,23.35-149.14,45.74-7.16-23.35Zm147.06-41.8l-143.12,43.89,5.31,17.32,143.12-43.89-5.31-17.32Z"/>
      </g>
      <g>
        <rect class="cls-8" x="348.2" y="441.12" width="21.27" height="152.85" transform="translate(748.44 22.75) rotate(72.95)"/>
        <path d="m280.68,528.74l149.14-45.74,7.16,23.35-149.14,45.74-7.16-23.35Zm147.06-41.8l-143.12,43.89,5.31,17.32,143.12-43.89-5.31-17.32Z"/>
      </g>
      <g>
        <rect class="cls-8" x="383.31" y="555.62" width="21.27" height="152.85" transform="translate(882.72 70.11) rotate(72.95)"/>
        <path d="m315.79,643.24l149.14-45.74,7.16,23.35-149.14,45.74-7.16-23.35Zm147.06-41.8l-143.12,43.89,5.31,17.32,143.12-43.89-5.31-17.32Z"/>
      </g>
      <g>
        <rect class="cls-8" x="416.11" y="662.58" width="21.27" height="152.85" transform="translate(1008.16 114.35) rotate(72.95)"/>
        <path d="m348.59,750.2l149.14-45.74,7.16,23.35-149.14,45.74-7.16-23.35Zm147.06-41.8l-143.12,43.89,5.31,17.32,143.12-43.89-5.31-17.32Z"/>
      </g>
      <g>
        <rect class="cls-8" x="289.31" y="191.03" width="21.27" height="658.67" transform="translate(739.28 929.92) rotate(162.95)"/>
        <path d="m191.26,207.57l23.35-7.16,194.03,632.74-23.35,7.16L191.26,207.57Zm21.26-3.22l-17.32,5.31,192.18,626.71,17.32-5.31L212.52,204.35Z"/>
      </g>
    </g>
  </g>
  <g id="Layer_4" data-name="Layer 4">
    <circle class="cls-2" cx="472.48" cy="412.52" r="49.52"/>
    <circle class="cls-2" cx="289.48" cy="54.52" r="49.52"/>
    <path d="m459.36,466.18c8.33,55.67,16.67,111.33,25,167,.95,6.34,10.59,3.65,9.64-2.66-8.33-55.67-16.67-111.33-25-167-.95-6.34-10.59-3.65-9.64,2.66h0Z"/>
    <path d="m472.19,511.24c10.91,10.98-5.19,23.83-14.13,28.52-13.26,6.96-27.8,12.13-42.62,14.47-26.85,4.23-55.82-2.68-73.8-24.08-4.15-4.93-11.19,2.17-7.07,7.07,22.02,26.2,58.52,32.42,90.61,25.29,16.36-3.64,34.96-10.09,48.19-20.67,11.2-8.96,17.27-26.21,5.89-37.67-4.54-4.57-11.61,2.5-7.07,7.07h0Z"/>
    <path d="m474.16,499.64c-30.55-6.67-61.97-6.89-92.62-.7-6.3,1.27-3.64,10.91,2.66,9.64,28.83-5.82,58.57-5.57,87.3.7,6.27,1.37,8.95-8.27,2.66-9.64h0Z"/>
    <path d="m484.95,633.43c26.75,53.3,47.25,109.56,60.41,167.75,1.42,6.27,11.06,3.62,9.64-2.66-13.36-59.01-34.3-116.08-61.42-170.14-2.89-5.75-11.52-.69-8.63,5.05h0Z"/>
    <path d="m481.23,623.28c-12.23,57.4-16.71,116.28-13.15,174.87.39,6.39,10.39,6.44,10,0-3.51-57.71.74-115.66,12.79-172.21,1.34-6.28-8.3-8.96-9.64-2.66h0Z"/>
    <path d="m379.73,360.14c-22.34-51.33-44.68-102.66-67.02-153.99-2.56-5.89-11.18-.8-8.63,5.05,22.34,51.33,44.68,102.66,67.02,153.99,2.56,5.89,11.18.8,8.63-5.05h0Z"/>
    <path d="m305.13,201.39c-32.98,16.17-54.01,52.85-51.3,89.47.47,6.38,10.47,6.43,10,0-2.47-33.42,16.26-66.09,46.35-80.84,5.78-2.83.72-11.46-5.05-8.63h0Z"/>
    <path d="m309.65,201.1c-1.75-16.92-8.77-33.11-14.21-49.09-5.71-16.79-11.43-33.58-17.14-50.37-2.06-6.06-11.72-3.46-9.64,2.66,5.5,16.17,11,32.33,16.51,48.5,5.3,15.57,12.78,31.84,14.49,48.3.66,6.34,10.66,6.41,10,0h0Z"/>
    <path d="m275.25,110.96c12.5,14.68,23.79,30.33,33.72,46.86,4.92,8.18,9.5,16.57,13.74,25.12s7.67,17.04,13.18,24.63c3.74,5.16,12.42.18,8.63-5.05-5.67-7.83-9.28-16.82-13.58-25.43s-9.15-17.44-14.27-25.85c-10.14-16.69-21.69-32.49-34.36-47.35-4.18-4.91-11.22,2.2-7.07,7.07h0Z"/>
    <path d="m279.77,111.15c-16.7-7.54-30.22-19.73-42.58-33.03-13.73-14.79-26.7-30.32-39.95-45.54-4.23-4.86-11.28,2.24-7.07,7.07,13.61,15.63,26.9,31.63,41.08,46.75,12.57,13.4,26.59,25.77,43.47,33.39,5.82,2.63,10.91-5.99,5.05-8.63h0Z"/>
  </g>
  <g id="Layer_1" data-name="Layer 1">
    <g>
      <rect class="cls-12" x="2.03" y="785.85" width="708.47" height="280" rx="25.05" ry="25.05"/>
      <path d="m688.37,1067.85H24.15c-13.17,0-23.89-12.13-23.89-27.05v-229.9c0-14.91,10.72-27.05,23.89-27.05h664.21c13.17,0,23.89,12.13,23.89,27.05v229.9c0,14.91-10.72,27.05-23.89,27.05ZM24.15,787.85c-11.23,0-20.36,10.34-20.36,23.05v229.9c0,12.71,9.13,23.05,20.36,23.05h664.21c11.23,0,20.36-10.34,20.36-23.05v-229.9c0-12.71-9.13-23.05-20.36-23.05H24.15Z"/>
    </g>
    <rect class="cls-3" x="165.26" y="855.85" width="383" height="129" rx="36.05" ry="36.05"/>
    <text class="cls-6" transform="translate(324.31 902.99)"><tspan class="cls-9"><tspan class="cls-5" x="0" y="0">M</tspan><tspan x="25.11" y="0">ost</tspan></tspan><tspan class="cls-11"><tspan class="cls-7" x="-44.87" y="44">M</tspan><tspan x="-5.18" y="44">odest</tspan></tspan></text>
  </g>
  <g id="Layer_3" data-name="Layer 3">
    <path class="cls-10" d="m548.26,937.38s-21.37-73.54-94.18-81.54l63.82.45s28.36,6.64,30.36,35.6v45.49Z"/>
    <rect class="cls-1" x="164.26" y="855.85" width="383" height="129" rx="36.05" ry="36.05"/>
    <path class="cls-4" d="m629.17,785.85h60.94s18.61,3.46,20.38,22.73v62.83s-1.41-83.56-81.32-85.56Z"/>
    <path d="m688.11,1068.21H23.89c-13.17,0-23.89-12.13-23.89-27.05v-229.9c0-14.91,10.72-27.05,23.89-27.05h664.21c13.17,0,23.89,12.13,23.89,27.05v229.9c0,14.91-10.72,27.05-23.89,27.05ZM23.89,788.21c-11.23,0-20.36,10.34-20.36,23.05v229.9c0,12.71,9.13,23.05,20.36,23.05h664.21c11.23,0,20.36-10.34,20.36-23.05v-229.9c0-12.71-9.13-23.05-20.36-23.05H23.89Z"/>
  </g>
</svg>